<svg width="59" height="59" viewBox="0 0 59 59" fill="none" xmlns="http://www.w3.org/2000/svg">
<g filter="url(#filter0_d)">
<path d="M29.5395 17.3334C24.9489 17.3334 21.2026 21.0797 21.2026 25.6703C21.2026 30.2609 24.9489 34.0072 29.5395 34.0072C34.1301 34.0072 37.8764 30.2609 37.8764 25.6703C37.8764 21.0797 34.1301 17.3334 29.5395 17.3334ZM54.5439 25.6703C54.5439 22.218 54.5752 18.7969 54.3813 15.3508C54.1874 11.3481 53.2743 7.79571 50.3473 4.86873C47.4141 1.9355 43.868 1.02864 39.8652 0.834758C36.4129 0.640877 32.9919 0.672148 29.5458 0.672148C26.0934 0.672148 22.6724 0.640877 19.2263 0.834758C15.2236 1.02864 11.6712 1.94176 8.74422 4.86873C5.81099 7.80197 4.90413 11.3481 4.71025 15.3508C4.51637 18.8031 4.54764 22.2242 4.54764 25.6703C4.54764 29.1164 4.51637 32.5437 4.71025 35.9898C4.90413 39.9925 5.81724 43.5449 8.74422 46.4718C11.6775 49.4051 15.2236 50.3119 19.2263 50.5058C22.6786 50.6997 26.0997 50.6684 29.5458 50.6684C32.9981 50.6684 36.4192 50.6997 39.8652 50.5058C43.868 50.3119 47.4204 49.3988 50.3473 46.4718C53.2806 43.5386 54.1874 39.9925 54.3813 35.9898C54.5814 32.5437 54.5439 29.1226 54.5439 25.6703ZM29.5395 38.4977C22.441 38.4977 16.7121 32.7688 16.7121 25.6703C16.7121 18.5717 22.441 12.8429 29.5395 12.8429C36.6381 12.8429 42.3669 18.5717 42.3669 25.6703C42.3669 32.7688 36.6381 38.4977 29.5395 38.4977ZM42.8923 15.3133C41.2349 15.3133 39.8965 13.9749 39.8965 12.3175C39.8965 10.6601 41.2349 9.32174 42.8923 9.32174C44.5497 9.32174 45.8881 10.6601 45.8881 12.3175C45.8886 12.7111 45.8114 13.1008 45.661 13.4645C45.5107 13.8282 45.29 14.1587 45.0117 14.437C44.7334 14.7152 44.403 14.9359 44.0393 15.0863C43.6756 15.2366 43.2858 15.3138 42.8923 15.3133Z" fill="#EF6848"/>
</g>
<defs>
<filter id="filter0_d" x="0.545776" y="0.670288" width="58.0009" height="58" filterUnits="userSpaceOnUse" color-interpolation-filters="sRGB">
<feFlood flood-opacity="0" result="BackgroundImageFix"/>
<feColorMatrix in="SourceAlpha" type="matrix" values="0 0 0 0 0 0 0 0 0 0 0 0 0 0 0 0 0 0 127 0" result="hardAlpha"/>
<feOffset dy="4"/>
<feGaussianBlur stdDeviation="2"/>
<feColorMatrix type="matrix" values="0 0 0 0 0 0 0 0 0 0 0 0 0 0 0 0 0 0 0.75 0"/>
<feBlend mode="normal" in2="BackgroundImageFix" result="effect1_dropShadow"/>
<feBlend mode="normal" in="SourceGraphic" in2="effect1_dropShadow" result="shape"/>
</filter>
</defs>
</svg>
